<svg fill="#000000" xmlns="http://www.w3.org/2000/svg"  viewBox="0 0 64 64" width="64px" height="64px"><path d="M 27.5 4.171875 C 12.339844 4.171875 0 14.050781 0 26.1875 C 0 33.800781 4.75 40.710938 12.738281 44.769531 C 12.582031 46.769531 12.03125 50.039063 10.1875 53.089844 C 9.988281 53.429688 10.011719 53.859375 10.238281 54.1875 C 10.429688 54.449219 10.730469 54.597656 11.050781 54.597656 C 11.121094 54.597656 11.199219 54.601563 11.269531 54.578125 C 17.691406 53.148438 20.761719 49.519531 21.910156 47.75 C 23.25 47.96875 24.597656 48.109375 25.949219 48.171875 C 29.179688 53.570313 36.058594 57.3125 44 57.3125 C 45.289063 57.3125 46.589844 57.210938 47.871094 57 C 48.789063 58.359375 51.050781 60.871094 55.578125 61.871094 C 55.648438 61.890625 55.71875 61.902344 55.789063 61.902344 C 56.109375 61.902344 56.410156 61.75 56.597656 61.480469 C 56.839844 61.160156 56.859375 60.722656 56.652344 60.378906 C 55.402344 58.300781 55.011719 56.039063 54.878906 54.730469 C 60.609375 51.75 64 46.75 64 41.238281 C 64 35.609375 60.378906 30.648438 54.921875 27.78125 C 54.980469 27.257813 55 26.730469 55 26.1875 C 55 14.050781 42.660156 4.171875 27.5 4.171875 Z M 27.5 6.171875 C 41.558594 6.171875 53 15.148438 53 26.1875 C 53 26.417969 52.992188 26.660156 52.980469 26.890625 C 50.28125 25.789063 47.230469 25.171875 44 25.171875 C 32.96875 25.171875 24 32.378906 24 41.238281 C 24 42.929688 24.328125 44.570313 24.9375 46.097656 C 23.820313 46.007813 22.699219 45.859375 21.589844 45.660156 C 21.167969 45.582031 20.738281 45.78125 20.53125 46.160156 C 19.980469 47.179688 17.921875 50.300781 12.988281 52.019531 C 14.351563 48.910156 14.699219 45.910156 14.769531 44.21875 C 14.789063 43.820313 14.570313 43.441406 14.210938 43.269531 C 6.5625 39.589844 2 33.210938 2 26.1875 C 2 15.148438 13.441406 6.171875 27.5 6.171875 Z M 27.484375 8.835938 C 26.730469 8.84375 25.96875 8.882813 25.222656 8.949219 C 24.675781 9 24.265625 9.484375 24.316406 10.035156 C 24.367188 10.585938 24.851563 10.996094 25.402344 10.941406 C 26.09375 10.878906 26.800781 10.84375 27.503906 10.839844 C 31.070313 10.773438 34.660156 11.519531 37.769531 12.910156 C 37.90625 12.972656 38.042969 13 38.183594 13 C 38.5625 13 38.929688 12.777344 39.09375 12.40625 C 39.320313 11.902344 39.09375 11.3125 38.589844 11.085938 C 35.21875 9.578125 31.378906 8.816406 27.484375 8.835938 Z M 41.8125 13.175781 C 41.558594 13.21875 41.324219 13.359375 41.164063 13.582031 C 40.84375 14.03125 40.949219 14.65625 41.394531 14.980469 C 41.933594 15.363281 42.449219 15.773438 42.933594 16.199219 C 43.121094 16.367188 43.359375 16.453125 43.59375 16.453125 C 43.871094 16.453125 44.144531 16.339844 44.34375 16.113281 C 44.710938 15.703125 44.671875 15.070313 44.261719 14.703125 C 43.726563 14.230469 43.152344 13.773438 42.558594 13.347656 C 42.332031 13.191406 42.066406 13.136719 41.8125 13.175781 Z M 18 19 C 16.894531 19 16 19.894531 16 21 C 16 22.105469 16.894531 23 18 23 C 19.105469 23 20 22.105469 20 21 C 20 19.894531 19.105469 19 18 19 Z M 36 19 C 34.894531 19 34 19.894531 34 21 C 34 22.105469 34.894531 23 36 23 C 37.105469 23 38 22.105469 38 21 C 38 19.894531 37.105469 19 36 19 Z M 44 27.171875 C 47.179688 27.171875 50.167969 27.820313 52.761719 28.949219 C 53.398438 29.238281 54.019531 29.539063 54.597656 29.878906 C 59.089844 32.441406 62 36.582031 62 41.238281 C 62 46.160156 58.789063 50.640625 53.410156 53.230469 C 53.050781 53.410156 52.820313 53.78125 52.839844 54.179688 C 52.890625 55.300781 53.109375 57.21875 53.890625 59.261719 C 50.890625 58.039063 49.609375 56.089844 49.238281 55.421875 C 49.070313 55.101563 48.730469 54.910156 48.371094 54.910156 C 48.308594 54.910156 48.25 54.910156 48.179688 54.921875 C 46.800781 55.179688 45.398438 55.3125 44 55.3125 C 37.300781 55.3125 31.449219 52.4375 28.359375 48.1875 C 27.890625 47.558594 27.488281 46.898438 27.160156 46.199219 C 26.410156 44.660156 26 42.988281 26 41.238281 C 26 33.480469 34.070313 27.171875 44 27.171875 Z M 11.6875 32.152344 C 11.433594 32.148438 11.175781 32.238281 10.980469 32.433594 L 9.539063 33.820313 C 9.140625 34.203125 9.132813 34.839844 9.515625 35.234375 C 9.710938 35.4375 9.972656 35.539063 10.234375 35.539063 C 10.484375 35.539063 10.734375 35.445313 10.929688 35.261719 L 12.367188 33.871094 C 12.765625 33.484375 12.777344 32.851563 12.390625 32.453125 C 12.199219 32.257813 11.945313 32.15625 11.6875 32.152344 Z M 16.105469 35.566406 C 15.71875 35.511719 15.320313 35.6875 15.109375 36.046875 L 14.078125 37.761719 C 13.792969 38.234375 13.949219 38.847656 14.421875 39.132813 C 14.582031 39.230469 14.757813 39.277344 14.9375 39.277344 C 15.277344 39.277344 15.605469 39.101563 15.792969 38.789063 L 16.824219 37.074219 C 17.105469 36.601563 16.953125 35.984375 16.480469 35.703125 C 16.359375 35.628906 16.230469 35.585938 16.105469 35.566406 Z M 38 36 C 36.894531 36 36 36.894531 36 38 C 36 39.105469 36.894531 40 38 40 C 39.105469 40 40 39.105469 40 38 C 40 36.894531 39.105469 36 38 36 Z M 50 36 C 48.894531 36 48 36.894531 48 38 C 48 39.105469 48.894531 40 50 40 C 51.105469 40 52 39.105469 52 38 C 52 36.894531 51.105469 36 50 36 Z M 20.871094 37.75 C 20.484375 37.796875 20.144531 38.070313 20.03125 38.46875 L 19.480469 40.390625 C 19.328125 40.921875 19.636719 41.476563 20.167969 41.628906 C 20.261719 41.65625 20.351563 41.667969 20.441406 41.667969 C 20.878906 41.667969 21.277344 41.378906 21.40625 40.941406 L 21.953125 39.019531 C 22.105469 38.488281 21.796875 37.933594 21.265625 37.78125 C 21.136719 37.746094 21 37.734375 20.871094 37.75 Z M 30.976563 44 C 30.847656 44.019531 30.71875 44.0625 30.597656 44.128906 C 30.121094 44.40625 29.957031 45.019531 30.234375 45.496094 C 31.691406 48.027344 34.335938 50.0625 37.671875 51.222656 C 37.78125 51.261719 37.894531 51.28125 38 51.28125 C 38.414063 51.28125 38.800781 51.019531 38.945313 50.609375 C 39.128906 50.085938 38.851563 49.519531 38.328125 49.335938 C 35.445313 48.332031 33.1875 46.613281 31.96875 44.496094 C 31.761719 44.136719 31.363281 43.953125 30.976563 44 Z"/></svg>